<?xml version="1.0" standalone="no"?>
<!DOCTYPE svg PUBLIC "-//W3C//DTD SVG 20010904//EN"
 "http://www.w3.org/TR/2001/REC-SVG-20010904/DTD/svg10.dtd">
<svg version="1.0" xmlns="http://www.w3.org/2000/svg"
 width="340.000000pt" height="340.000000pt" viewBox="0 0 340.000000 340.000000"
 preserveAspectRatio="xMidYMid meet">
<metadata>
Created by potrace 1.11, written by Peter Selinger 2001-2013
</metadata>
<g transform="translate(0.000000,340.000000) scale(0.100000,-0.100000)"
fill="#000000" stroke="none">
<path d="M614 1859 c1 -391 -1 -714 -4 -719 -3 -4 -41 -13 -85 -20 -98 -14
-215 -43 -315 -77 -79 -27 -180 -71 -180 -78 0 -2 25 5 55 15 72 25 281 68
376 77 95 10 423 10 514 0 133 -14 161 -18 280 -43 147 -30 225 -51 425 -114
398 -125 699 -165 1030 -137 206 17 433 73 583 142 58 28 52 33 -12 10 -59
-20 -266 -63 -342 -70 -35 -4 -75 -8 -89 -11 -36 -6 -368 -6 -410 0 -19 3 -60
8 -90 11 -51 5 -77 8 -147 19 -113 18 -302 66 -498 127 -167 52 -370 105 -442
115 -23 3 -54 9 -69 13 -27 7 -26 7 27 43 331 218 591 388 594 388 4 0 510
-331 640 -419 78 -52 111 -72 85 -49 -25 21 -388 319 -444 364 -28 22 -102 84
-165 136 l-114 96 -125 -102 c-472 -385 -537 -439 -540 -447 -2 -5 -15 -6 -30
-3 -45 9 -109 12 -274 13 l-158 1 0 678 0 677 279 0 c154 0 282 -3 286 -6 3
-4 7 -130 8 -280 l2 -274 120 -1 c66 -1 126 -2 132 -3 10 -1 13 -55 15 -218
l3 -217 35 31 35 31 1 226 1 226 -133 0 c-100 0 -134 3 -135 13 0 6 -1 132 -1
280 l-1 267 -361 0 -362 0 0 -711z"/>
<path d="M1807 2425 c-1 -2 -36 -5 -77 -8 -91 -8 -194 -34 -278 -72 -65 -29
-86 -52 -76 -79 7 -19 8 -19 42 -3 25 13 108 38 177 53 17 3 80 8 142 9 395
11 733 -226 861 -601 12 -34 24 -75 27 -90 6 -36 18 -162 16 -169 -3 -10 43
-44 52 -38 12 8 0 243 -17 313 -38 158 -118 302 -231 416 -150 151 -316 232
-531 258 -57 7 -105 12 -107 11z"/>
<path d="M770 2323 c0 -41 4 -73 10 -74 6 0 26 -1 45 -1 99 0 91 -6 91 72 0
39 -2 70 -5 71 -3 1 -36 2 -73 3 l-68 2 0 -73z"/>
<path d="M1029 2390 c-7 -46 -3 -140 5 -141 42 -3 132 4 136 11 4 7 5 75 1
120 -1 13 -15 16 -71 16 -38 -1 -70 -3 -71 -6z"/>
<path d="M1095 2110 l-69 -5 -1 -67 c0 -76 -3 -74 89 -73 l59 0 1 62 c2 89 2
89 -79 83z"/>
<path d="M770 2037 l0 -73 68 2 c37 1 70 2 73 3 3 0 6 33 5 71 l-1 70 -72 0
-73 0 0 -73z"/>
<path d="M772 1758 l3 -73 50 -2 c90 -5 91 -3 92 77 l0 70 -74 0 -74 0 3 -72z"/>
<path d="M1028 1818 c-4 -11 -3 -88 1 -125 1 -12 140 -16 142 -4 4 23 4 118 1
129 -3 8 -27 12 -72 12 -45 0 -69 -4 -72 -12z"/>
<path d="M1285 1763 c1 -38 3 -71 4 -74 0 -4 33 -7 71 -7 l70 0 0 74 0 74 -74
0 -74 0 3 -67z"/>
<path d="M770 1475 l0 -76 73 3 72 3 1 73 1 72 -74 0 -73 0 0 -75z"/>
<path d="M1029 1538 c-1 -7 -2 -41 -3 -75 l-1 -63 71 0 c81 0 80 -1 79 90 l0
55 -73 3 c-53 2 -72 0 -73 -10z"/>
<path d="M1284 1478 l1 -73 73 -3 72 -3 0 76 0 75 -74 0 -74 0 2 -72z"/>
<path d="M2442 1398 c-56 -45 -102 -87 -102 -94 0 -31 36 -20 118 35 l88 59
49 -33 c28 -18 131 -86 230 -152 193 -128 224 -147 185 -113 -14 12 -36 32
-50 44 -47 40 -410 336 -413 336 -2 0 -49 -37 -105 -82z"/>
<path d="M1751 1323 c-33 -16 -71 -65 -71 -90 0 -9 19 -13 60 -13 l60 0 0 60
c0 33 -3 60 -7 60 -5 0 -23 -8 -42 -17z"/>
<path d="M1830 1280 l0 -60 60 0 c67 0 71 6 40 58 -17 27 -70 62 -95 62 -3 0
-5 -27 -5 -60z"/>
<path d="M1680 1178 c0 -38 71 -108 110 -108 6 0 10 25 10 60 l0 60 -60 0
c-41 0 -60 -4 -60 -12z"/>
<path d="M1830 1130 c0 -67 6 -71 57 -40 30 18 63 65 63 90 0 6 -25 10 -60 10
l-60 0 0 -60z"/>
</g>
</svg>
