<svg version="1.0" xmlns="http://www.w3.org/2000/svg"
 width="300.000000pt" height="157.000000pt" viewBox="0 0 300.000000 157.000000"
 preserveAspectRatio="xMidYMid meet">
<metadata>
Created by potrace 1.10, written by Peter Selinger 2001-2011
</metadata>
<g transform="translate(0.000000,157.000000) scale(0.100000,-0.100000)"
fill="#fdfdfd" stroke="none">
<path d="M840 1132 l0 -428 -77 -13 c-91 -15 -250 -64 -278 -85 -13 -10 4 -7
50 8 113 38 208 51 375 50 211 -1 295 -16 635 -117 182 -53 312 -71 485 -64
80 3 170 10 200 17 79 16 234 68 256 85 13 10 3 8 -31 -5 -146 -54 -389 -73
-591 -46 -126 17 -220 39 -414 99 -63 19 -153 41 -198 49 l-84 14 197 131 197
131 231 -155 c128 -85 223 -146 212 -135 -11 10 -115 96 -232 190 l-212 172
-168 -138 c-261 -214 -215 -191 -373 -185 l-135 6 0 403 0 404 173 0 172 0 0
-168 0 -169 80 5 80 5 0 -138 0 -138 25 23 c24 23 25 28 25 157 l0 133 -85 0
-86 0 3 165 3 165 -217 0 -218 0 0 -428z m360 -462 c20 -6 21 -8 5 -8 -11 0
-33 4 -50 8 -27 7 -27 8 -5 8 14 0 36 -4 50 -8z m100 -20 c20 -6 21 -8 5 -8
-11 0 -29 3 -40 8 -25 11 1 11 35 0z m87 -26 c-3 -3 -12 -4 -19 -1 -8 3 -5 6
6 6 11 1 17 -2 13 -5z m100 -30 c-3 -3 -12 -4 -19 -1 -8 3 -5 6 6 6 11 1 17
-2 13 -5z m83 -24 c13 -9 13 -10 0 -9 -8 0 -24 4 -35 9 -20 9 -20 9 0 9 11 0
27 -4 35 -9z m90 -24 c8 -4 -1 -4 -20 -1 -19 3 -39 10 -44 15 -10 10 19 3 64
-14z m64 -15 c3 -4 -6 -6 -19 -3 -14 2 -25 6 -25 8 0 8 39 4 44 -5z"/>
<path d="M1478 1469 c-87 -13 -172 -49 -176 -76 l-3 -22 53 21 c68 26 198 35
280 19 143 -28 279 -124 355 -252 32 -54 73 -187 73 -239 0 -15 7 -34 17 -41
15 -13 16 -6 11 86 -9 145 -51 247 -142 344 -116 123 -298 186 -468 160z m252
-46 c55 -17 120 -56 174 -103 34 -30 116 -138 116 -153 0 -6 -14 9 -32 34 -44
62 -131 142 -189 174 -56 30 -174 66 -185 57 -4 -4 -4 -2 0 5 7 14 40 10 116
-14z"/>
<path d="M930 1415 l0 -45 45 0 45 0 0 45 0 45 -45 0 -45 0 0 -45z m70 4 c0
-12 -7 -19 -20 -19 -13 0 -20 7 -20 18 0 11 8 18 20 19 14 1 20 -4 20 -18z"/>
<path d="M1090 1415 l0 -45 45 0 45 0 0 45 0 45 -45 0 -45 0 0 -45z m60 5 c0
-11 -7 -20 -15 -20 -8 0 -15 2 -15 4 0 2 -3 11 -6 20 -4 12 0 16 15 16 14 0
21 -6 21 -20z"/>
<path d="M930 1245 l0 -45 45 0 45 0 0 45 0 45 -45 0 -45 0 0 -45z m70 4 c0
-12 -7 -19 -20 -19 -13 0 -20 7 -20 18 0 11 8 18 20 19 14 1 20 -4 20 -18z"/>
<path d="M1090 1245 l0 -45 45 0 45 0 0 45 0 45 -45 0 -45 0 0 -45z m60 5 c0
-13 -7 -20 -19 -20 -14 0 -18 5 -14 20 3 11 12 20 19 20 8 0 14 -9 14 -20z"/>
<path d="M930 1075 l0 -45 45 0 45 0 0 45 0 45 -45 0 -45 0 0 -45z m70 5 c0
-13 -7 -20 -20 -20 -25 0 -27 27 -2 33 9 3 18 5 20 6 1 0 2 -8 2 -19z"/>
<path d="M1090 1075 l0 -45 45 0 45 0 0 45 0 45 -45 0 -45 0 0 -45z m53 -1
c-7 -18 -19 -18 -26 0 -7 18 1 26 18 19 8 -2 11 -11 8 -19z"/>
<path d="M1240 1075 l0 -45 45 0 45 0 0 45 0 45 -45 0 -45 0 0 -45z m70 5 c0
-13 -7 -20 -19 -20 -14 0 -19 6 -18 20 1 12 8 20 19 20 11 0 18 -7 18 -20z"/>
<path d="M1283 953 l-43 -4 0 -42 0 -43 45 1 45 0 0 48 c0 26 -1 46 -2 45 -2
-1 -22 -3 -45 -5z m27 -43 c0 -13 -7 -20 -20 -20 -19 0 -27 20 -13 33 13 14
33 6 33 -13z"/>
<path d="M932 909 c3 -42 3 -42 46 -43 l42 -1 0 43 0 42 -46 0 -45 0 3 -41z
m68 -1 c0 -11 -7 -18 -20 -18 -13 0 -20 7 -20 19 0 14 6 19 20 18 12 -1 20 -8
20 -19z"/>
<path d="M1090 908 l0 -43 45 0 45 -1 0 43 0 43 -45 0 -45 0 0 -42z m55 2 c0
-7 -6 -15 -12 -17 -8 -3 -13 4 -13 17 0 13 5 20 13 18 6 -3 12 -11 12 -18z"/>
<path d="M1932 858 c-77 -62 -67 -85 15 -30 l54 35 151 -101 c83 -56 153 -101
154 -99 3 2 -302 247 -307 247 -2 -1 -32 -24 -67 -52z"/>
<path d="M1505 805 c-34 -33 -31 -45 10 -45 33 0 35 2 35 35 0 41 -12 44 -45
10z"/>
<path d="M1570 795 c0 -33 2 -35 35 -35 43 0 46 20 9 49 -37 29 -44 26 -44
-14z"/>
<path d="M1480 732 c0 -14 31 -52 51 -62 17 -10 19 -7 19 30 0 39 -1 40 -35
40 -19 0 -35 -3 -35 -8z"/>
<path d="M1570 700 l0 -41 28 15 c15 8 33 26 40 40 11 26 11 26 -28 26 l-40 0
0 -40z"/>
<path d="M1840 293 c-31 -6 -51 -23 -27 -23 13 0 17 -9 17 -41 0 -39 -1 -41
-25 -35 -31 8 -90 -16 -104 -42 -18 -34 -13 -100 9 -122 24 -24 67 -26 98 -4
20 14 22 14 22 0 0 -12 10 -16 38 -16 34 1 35 2 18 15 -16 12 -18 28 -17 144
1 72 1 130 -1 130 -2 -1 -14 -4 -28 -6z m-35 -125 c22 -10 25 -17 25 -59 0
-41 -4 -51 -26 -65 -24 -16 -27 -16 -52 3 -37 27 -41 77 -11 109 26 28 29 28
64 12z"/>
<path d="M2460 287 c-23 -7 -29 -12 -17 -14 15 -4 17 -19 17 -132 l0 -128 55
-2 c50 -1 59 2 85 27 74 74 28 188 -61 152 -16 -7 -29 -16 -29 -21 0 -5 -3 -9
-7 -9 -5 0 -6 22 -5 49 6 82 3 89 -38 78z m122 -134 c37 -33 13 -123 -33 -123
-39 0 -49 11 -49 58 0 70 40 103 82 65z"/>
<path d="M74 270 c-38 -19 -54 -38 -68 -83 -3 -11 -2 -16 4 -12 6 4 10 -9 10
-30 0 -20 -4 -34 -9 -31 -14 9 0 -37 18 -58 9 -10 28 -24 43 -32 49 -25 178
-13 178 17 0 7 -7 8 -17 3 -10 -4 -37 -9 -59 -12 -84 -8 -141 51 -131 136 6
54 39 90 90 99 44 7 97 -13 98 -36 0 -11 4 -9 11 7 16 32 1 43 -68 48 -47 4
-68 1 -100 -16z"/>
<path d="M1953 265 c-21 -15 -38 -55 -22 -55 5 0 9 5 9 10 0 6 11 15 25 22 32
14 75 -12 75 -46 0 -28 -38 -86 -93 -143 l-41 -43 92 0 c87 0 92 1 92 21 0 19
-5 20 -64 17 l-64 -3 49 52 c76 80 84 122 32 163 -30 24 -61 26 -90 5z"/>
<path d="M2128 273 c21 -4 22 -8 22 -124 0 -97 -3 -119 -14 -119 -8 0 -18 -5
-21 -10 -4 -6 17 -10 54 -10 34 0 61 4 61 10 0 5 -3 9 -7 9 -28 -5 -33 4 -33
56 l0 55 40 0 c33 0 42 -4 50 -23 7 -17 9 -10 9 33 0 47 -2 52 -11 33 -9 -18
-20 -23 -50 -23 l-38 0 0 56 0 55 48 -3 c40 -3 47 -6 50 -25 5 -34 22 -28 22
7 l0 30 -102 -1 c-57 -1 -93 -4 -80 -6z"/>
<path d="M2354 269 c-3 -6 0 -17 7 -25 18 -17 44 -2 36 20 -7 18 -33 21 -43 5z"/>
<path d="M1398 249 c-10 -5 -18 -22 -18 -36 0 -14 -8 -32 -17 -39 -17 -13 -17
-13 0 -14 14 0 17 -10 17 -63 0 -36 5 -68 12 -75 17 -17 53 -15 69 5 13 15 12
16 -9 11 -27 -7 -29 -3 -35 70 -4 49 -3 52 19 52 12 0 26 5 29 10 4 6 -6 10
-23 10 -29 0 -30 1 -25 40 6 44 6 44 -19 29z"/>
<path d="M335 189 c-34 -20 -45 -41 -45 -89 0 -61 28 -90 89 -90 116 0 126
170 11 186 -19 2 -44 -1 -55 -7z m81 -30 c26 -29 26 -105 0 -125 -62 -45 -124
35 -85 109 23 43 55 49 85 16z"/>
<path d="M520 185 c-31 -10 -32 -12 -12 -17 20 -6 22 -12 22 -71 0 -56 -3 -65
-22 -75 -19 -9 -13 -11 37 -11 46 0 55 2 38 9 -20 8 -23 16 -23 69 0 51 3 62
21 71 11 7 32 9 45 6 23 -6 24 -11 24 -81 l0 -75 38 0 c30 1 34 3 20 11 -14 8
-18 23 -18 70 0 33 -4 69 -10 79 -14 26 -57 34 -86 15 -29 -18 -32 -19 -36 -1
-2 11 -10 11 -38 1z"/>
<path d="M760 185 c-31 -10 -32 -12 -12 -17 20 -6 22 -12 22 -71 0 -56 -3 -65
-22 -75 -19 -9 -13 -11 37 -11 47 0 55 2 37 9 -21 9 -23 15 -20 71 3 69 17 86
61 75 26 -6 27 -9 27 -81 l0 -75 38 0 c30 1 34 3 20 11 -14 8 -18 24 -18 74 0
66 -11 87 -51 100 -11 4 -30 0 -44 -9 -30 -19 -33 -20 -37 -2 -2 11 -10 11
-38 1z"/>
<path d="M1033 190 c-26 -11 -53 -59 -53 -95 0 -40 50 -85 93 -85 41 0 67 8
67 21 0 5 -11 7 -25 3 -38 -9 -70 3 -83 31 -16 36 -17 35 27 35 21 0 52 5 69
11 31 11 31 11 17 40 -24 45 -62 59 -112 39z m71 -32 c24 -34 20 -38 -34 -38
-54 0 -65 14 -34 44 22 22 50 20 68 -6z"/>
<path d="M1228 184 c-82 -44 -55 -174 36 -174 39 0 66 8 66 20 0 5 -17 6 -38
3 -45 -6 -70 16 -79 70 -10 64 65 105 93 50 12 -26 24 -20 24 13 0 34 -54 44
-102 18z"/>
<path d="M1528 185 c-31 -17 -52 -71 -42 -109 13 -54 92 -84 145 -56 29 16 23
30 -9 18 -39 -15 -76 -4 -90 27 -16 36 -17 35 33 35 89 0 114 35 57 80 -29 23
-57 25 -94 5z m82 -24 c18 -34 12 -41 -40 -41 -54 0 -58 4 -34 38 19 27 60 29
74 3z"/>
<path d="M2361 185 c-27 -9 -31 -13 -18 -18 25 -9 25 -132 0 -146 -14 -8 -5
-10 37 -10 30 1 47 3 38 6 -14 4 -18 19 -20 92 l-3 88 -34 -12z"/>
<path d="M2699 171 c-39 -39 -41 -100 -4 -136 37 -38 135 -32 135 7 0 5 -9 4
-19 -2 -44 -23 -87 -6 -104 43 -5 14 0 17 38 17 46 0 95 17 95 32 0 21 -59 68
-85 68 -16 0 -38 -12 -56 -29z m91 -10 c18 -34 12 -41 -40 -41 -43 0 -49 2
-43 18 16 45 63 58 83 23z"/>
<path d="M2880 184 c-27 -10 -30 -13 -12 -13 21 -1 22 -5 22 -71 0 -64 -2 -72
-22 -80 -18 -7 -9 -9 37 -9 46 0 55 2 38 9 -20 8 -23 17 -23 63 0 64 19 89 51
69 17 -11 19 -9 19 18 0 35 -8 37 -43 10 -25 -20 -26 -20 -29 -2 -3 17 -6 18
-38 6z"/>
</g>
</svg>
